<svg xmlns="http://www.w3.org/2000/svg" width="593.097" height="95.146" viewBox="0 0 593.097 95.146">
  <g fill="#FFF">
    <path d="M38.99 67.862v-4.266l-11.51 1.488c-6.35.793-9.523 3.67-9.523 8.63 0 2.184.794 4.07 2.282 5.458 1.58 1.39 3.67 2.084 6.25 2.084 3.67 0 6.64-1.29 8.93-3.77 2.38-2.58 3.57-5.755 3.57-9.624m18.25 25.696H38.79V84.43h-.3c-4.265 7.045-10.516 10.616-18.85 10.616-6.15 0-11.013-1.687-14.484-5.16C1.78 86.416 0 81.753 0 76c0-12.303 7.242-19.347 21.826-21.23l17.164-2.283c0-6.944-3.77-10.318-11.21-10.318-7.54 0-14.685 2.28-21.43 6.74V34.13c2.678-1.39 6.447-2.68 11.11-3.672 4.663-1.09 9.028-1.587 12.898-1.587 18.057 0 26.985 9.03 26.985 26.99v37.7h-.097zm67.96 0h-19.44v-9.623h-.3c-4.86 7.44-11.21 11.21-19.35 11.21-14.685 0-21.928-8.83-21.928-26.59V30.36H83.63v36.41c0 8.93 3.57 13.395 10.616 13.395 3.48 0 6.258-1.19 8.34-3.67 2.085-2.48 3.176-5.756 3.176-9.922V30.36h19.447v63.198zm51.69-30.756V58.04c0-4.067-1.19-7.54-3.57-10.22-2.38-2.678-5.46-4.066-9.33-4.066-4.37 0-7.74 1.687-10.12 5.06s-3.67 8.036-3.67 13.99c0 5.555 1.19 9.82 3.47 12.798 2.38 2.976 5.552 4.464 9.72 4.464 3.97 0 7.144-1.587 9.624-4.762 2.577-3.077 3.867-7.244 3.867-12.502m19.148 30.756H176.5v-8.73h-.198c-4.465 6.846-11.013 10.22-19.545 10.22-7.938 0-14.287-2.78-19.05-8.335-4.86-5.556-7.242-13.394-7.242-23.315 0-10.417 2.68-18.85 7.938-25.1 5.357-6.25 12.303-9.426 20.835-9.426 8.136 0 13.79 2.877 17.064 8.73h.198V0h19.545v93.558zm27.783-21.43c0 2.68.597 4.762 1.887 6.052 1.29 1.39 2.977 2.084 5.16 2.084 1.09 0 2.182-.1 3.174-.298 1.093-.198 2.184-.397 3.176-.596v13.69c-2.384.597-4.864 1.093-7.44 1.49-2.58.396-5.36.595-8.14.595-2.58 0-4.96-.397-7.046-1.29s-3.87-2.083-5.458-3.77c-1.49-1.588-2.68-3.572-3.474-5.855-.797-2.28-1.29-4.86-1.29-7.838V30.36h19.344v41.77h.1zm-9.424-51.79c-3.277 0-5.956-.99-8.14-2.976-2.083-1.984-3.174-4.365-3.174-7.143 0-2.98.99-5.26 3.176-7.15 2.084-1.89 4.764-2.78 8.14-2.78s6.05.89 8.132 2.772c2.084 1.886 3.076 4.267 3.076 7.145 0 2.973-.99 5.354-3.073 7.24-2.083 1.984-4.86 2.88-8.136 2.88z"/>
    <path d="M268.57 43.753c-4.663 0-8.234 1.587-10.715 4.762-2.58 3.175-3.87 7.64-3.87 13.493 0 12.104 4.862 18.156 14.685 18.156 9.325 0 13.988-6.25 13.988-18.652.1-11.905-4.663-17.76-14.088-17.76m-.496 51.294c-10.517 0-18.85-2.977-24.804-8.83-6.052-5.854-9.028-13.89-9.028-24.01 0-10.417 3.076-18.65 9.326-24.505 6.25-5.85 14.684-8.83 25.398-8.83 10.517 0 18.752 2.98 24.704 8.83 5.953 5.86 8.93 13.7 8.93 23.42 0 10.52-3.076 18.75-9.227 24.9-6.15 6.06-14.584 9.03-25.3 9.03zm139.99-1.488h-19.446V57.543c0-9.127-3.373-13.79-10.12-13.79-3.175 0-5.854 1.39-7.838 4.167-1.983 2.777-3.075 6.15-3.075 10.318v35.32h-19.347v-36.41c0-8.93-3.373-13.395-9.92-13.395-3.375 0-6.054 1.29-7.94 3.97-1.983 2.678-2.976 6.25-2.976 10.714v35.12h-19.445V30.36h19.445v9.92h.298c1.984-3.372 4.86-6.15 8.532-8.233 3.67-2.084 7.64-3.175 11.906-3.175 8.93 0 15.08 3.968 18.354 11.806 4.86-7.838 11.905-11.806 21.23-11.806 13.692 0 20.637 8.433 20.637 25.398v39.288h-.3zm42.266-25.696v-4.266l-11.51 1.488c-6.35.793-9.524 3.67-9.524 8.63 0 2.184.794 4.07 2.282 5.458 1.587 1.39 3.67 2.084 6.25 2.084 3.67 0 6.647-1.29 8.93-3.77 2.38-2.58 3.57-5.755 3.57-9.624m18.256 25.696H450.13V84.43h-.297c-4.267 7.045-10.517 10.616-18.85 10.616-6.152 0-11.014-1.687-14.486-5.16s-5.258-8.134-5.258-13.89c0-12.302 7.24-19.346 21.82-21.23l17.16-2.282c0-6.944-3.77-10.318-11.21-10.318-7.54 0-14.69 2.282-21.43 6.747V34.13c2.68-1.39 6.45-2.68 11.11-3.672 4.66-1.09 9.03-1.587 12.9-1.587 18.05 0 26.98 9.03 26.98 26.99v37.7zm55.856-2.28c-4.364 2.58-10.714 3.77-19.048 3.77-9.723 0-17.56-2.978-23.613-8.83-6.06-5.855-9.03-13.494-9.03-22.82 0-10.715 3.17-19.147 9.62-25.398 6.45-6.15 15.08-9.326 25.89-9.326 7.44 0 12.8.992 16.17 2.977v16.57c-4.07-3.07-8.63-4.56-13.59-4.56-5.66 0-10.02 1.59-13.3 4.86-3.274 3.28-4.86 7.74-4.86 13.6 0 5.56 1.586 10.02 4.662 13.2 3.074 3.175 7.44 4.76 12.896 4.76 4.86 0 9.624-1.486 14.287-4.56v15.77h-.1zm68.657 2.28h-23.414l-20.24-31.35h-.198v31.35H529.7V0h19.545v59.528h.198l18.85-29.168h23.117l-22.62 29.664"/>
  </g>
</svg>
