<svg xmlns="http://www.w3.org/2000/svg" width="167.361" height="66.175" viewBox="0 0 167.361 66.175">
  <path fill="#FFF" d="M38.99 38.99v-4.266l-11.51 1.488c-6.35.793-9.523 3.67-9.523 8.63 0 2.184.794 4.07 2.282 5.458 1.58 1.39 3.67 2.084 6.25 2.084 3.67 0 6.64-1.29 8.93-3.77 2.38-2.58 3.57-5.755 3.57-9.624m18.25 25.697H38.79V55.56h-.3c-4.265 7.044-10.516 10.615-18.85 10.615-6.15 0-11.013-1.687-14.484-5.16C1.78 57.545 0 52.882 0 47.125c0-12.3 7.242-19.345 21.826-21.23l17.164-2.28c0-6.945-3.77-10.32-11.21-10.32-7.54 0-14.685 2.283-21.43 6.748V5.258c2.678-1.39 6.447-2.68 11.11-3.67C22.124.495 26.49 0 30.36 0c18.056 0 26.984 9.028 26.984 26.985v37.7h-.098zm109.82 0h-19.45V28.672c0-9.127-3.373-13.79-10.12-13.79-3.175 0-5.854 1.39-7.838 4.167-1.984 2.77-3.076 6.15-3.076 10.31v35.32H107.23V28.27c0-8.93-3.372-13.394-9.92-13.394-3.374 0-6.053 1.29-7.94 3.97-1.982 2.68-2.975 6.25-2.975 10.714v35.12H66.96V1.49h19.445v9.92h.298c1.987-3.372 4.864-6.15 8.535-8.233C98.905 1.09 102.875 0 107.14 0c8.93 0 15.08 3.968 18.354 11.806C130.354 3.968 137.4 0 146.726 0c13.69 0 20.636 8.433 20.636 25.398v39.288h-.298z"/>
</svg>
