<svg xmlns="http://www.w3.org/2000/svg" width="407.25" height="232.15" viewBox="306.79 181.33 407.25 232.15">
  <path d="M311.4 287.1c-.85 0-1.53.67-1.64 1.6l-2.97 22.63 2.96 22.23c.1.94.8 1.6 1.64 1.6.82 0 1.5-.66 1.62-1.6l3.53-22.23-3.53-22.63c-.12-.93-.8-1.6-1.62-1.6zm16.75-12.35c-.14-.97-.84-1.64-1.7-1.64s-1.58.7-1.7 1.65l-4 36.58 4 35.76c.12.95.83 1.64 1.7 1.64.86 0 1.55-.67 1.7-1.64l4.55-35.77-4.55-36.58zm63.08-33.73c-1.64 0-3 1.34-3.08 3.05l-3.18 67.3 3.18 43.47c.1 1.7 1.44 3.04 3.08 3.04 1.64 0 3-1.34 3.1-3.04l3.6-43.48-3.6-67.3c-.1-1.7-1.46-3.04-3.1-3.04zm-32.65 23.38c-1.26 0-2.3 1-2.4 2.36l-3.58 44.58 3.6 43.14c.1 1.33 1.12 2.34 2.38 2.34 1.25 0 2.28-1 2.4-2.34l4.07-43.14-4.08-44.6c-.1-1.33-1.14-2.34-2.4-2.34zm65.83 93.48c2.05 0 3.7-1.64 3.8-3.74l3.1-42.76-3.1-89.6c-.1-2.1-1.75-3.73-3.78-3.73-2.06 0-3.72 1.65-3.78 3.75l-2.77 89.58 2.77 42.77c.06 2.08 1.72 3.73 3.77 3.73zm67.94.2c2.8 0 5.12-2.3 5.17-5.14v.03-.03l2.2-41.53-2.2-103.46c-.04-2.83-2.36-5.15-5.16-5.15-2.8 0-5.12 2.3-5.17 5.15l-1.95 103.42 1.95 41.6c.05 2.8 2.37 5.1 5.17 5.1zm-34.22-.16c2.44 0 4.4-1.96 4.47-4.45v.03l2.64-42.1-2.66-90.24c-.06-2.5-2.03-4.45-4.47-4.45s-4.4 1.96-4.46 4.45l-2.36 90.24 2.36 42.1c.06 2.46 2.02 4.42 4.48 4.42zm-83.28-.4c1.45 0 2.63-1.15 2.74-2.68l3.84-43.5-3.84-41.37c-.1-1.53-1.28-2.68-2.74-2.68-1.47 0-2.64 1.15-2.73 2.7l-3.38 41.34 3.4 43.5c.08 1.53 1.25 2.7 2.72 2.7zm-32.4-2.38c1.07 0 1.93-.83 2.05-2l4.3-41.8-4.3-43.4c-.13-1.16-1-2-2.05-2-1.07 0-1.93.84-2.04 2l-3.8 43.4 3.8 41.8c.1 1.16.97 2 2.05 2zm132.73-135.5c-2.65 0-4.78 2.12-4.83 4.82l-2.16 86.94 2.16 41.83c.05 2.67 2.17 4.77 4.83 4.77 2.64 0 4.75-2.1 4.8-4.8v.04l2.43-41.84-2.42-86.95c-.06-2.7-2.17-4.8-4.8-4.8zm-67.4 138.33c1.82 0 3.33-1.5 3.42-3.4l3.35-43.2-3.36-82.68c-.1-1.92-1.6-3.4-3.44-3.4-1.85 0-3.35 1.5-3.43 3.4l-2.98 82.67 2.98 43.22c.08 1.88 1.58 3.37 3.43 3.37zm37.55-4.08v-.03l2.9-42.48-2.9-92.62c-.07-2.3-1.88-4.1-4.12-4.1-2.25 0-4.06 1.8-4.13 4.1l-2.56 92.6 2.58 42.5c.06 2.28 1.87 4.08 4.12 4.08 2.24 0 4.05-1.8 4.12-4.1v.03zM663.95 258c-6.87 0-13.4 1.4-19.38 3.9-3.98-45.15-41.84-80.57-88.02-80.57-11.3 0-22.3 2.23-32.04 6-3.77 1.45-4.78 2.96-4.82 5.88v159c.04 3.06 2.42 5.6 5.4 5.92l138.86.08c27.67 0 50.1-22.43 50.1-50.1 0-27.66-22.43-50.1-50.1-50.1zm-154.5-64.93c-3 0-5.48 2.47-5.53 5.5l-2.26 112.85 2.27 40.95c.04 3 2.5 5.46 5.52 5.46 3 0 5.47-2.46 5.5-5.5v.05l2.47-40.96-2.46-112.85c-.05-3.03-2.52-5.5-5.52-5.5zm-162.2 196.98c-5.94-1.4-7.54-2.14-7.54-4.5 0-1.64 1.34-3.36 5.35-3.36 3.42 0 6.1 1.38 8.5 3.84l5.38-5.23c-3.52-3.67-7.8-5.86-13.6-5.86-7.38 0-13.36 4.16-13.36 10.95 0 7.35 4.8 9.54 11.7 11.14 7.04 1.6 8.32 2.67 8.32 5.08 0 2.83-2.1 4.06-6.52 4.06-3.58 0-6.94-1.23-9.56-4.28l-5.4 4.8c2.83 4.17 8.3 6.8 14.53 6.8 10.2 0 14.7-4.82 14.7-11.92 0-8.12-6.58-10.15-12.5-11.53zm34.38-15.12c-10.2 0-16.22 7.9-16.22 19.28s6.04 19.28 16.24 19.28 16.23-7.9 16.23-19.27-6.04-19.26-16.24-19.26zm0 31.14c-6.03 0-8.54-5.2-8.54-11.86 0-6.66 2.5-11.84 8.53-11.84 6.04 0 8.55 5.18 8.55 11.85 0 6.7-2.5 11.87-8.55 11.87zm46.4-9.56c0 6-2.93 9.68-7.68 9.68s-7.63-3.8-7.63-9.78v-20.88h-7.48v21c0 10.88 6.1 16.97 15.1 16.97 9.52 0 15.18-6.26 15.18-17.1v-20.88h-7.48v21zm39.74-5.17c0 2.08.1 6.78.1 8.17-.48-.97-1.7-2.83-2.6-4.23L452 375.5h-7.14v37.4h7.37v-16.45c0-2.1-.1-6.78-.1-8.17.47.96 1.7 2.83 2.6 4.22l13.73 20.4h6.68v-37.4h-7.38v15.83zm28.67-15.8h-11.7v37.37h11.16c9.62 0 19.12-5.56 19.12-18.7 0-13.66-7.9-18.68-18.58-18.68zm-.54 30.1h-3.68V382.8h3.95c7.9 0 11.17 3.8 11.17 11.43 0 6.85-3.58 11.44-11.44 11.44zm42.25-23.27c3.36 0 5.5 1.5 6.83 4.06l6.94-3.2c-2.35-4.86-6.62-8.28-13.67-8.28-9.76 0-16.6 7.9-16.6 19.27 0 11.8 6.56 19.28 16.33 19.28 6.78 0 11.27-3.15 13.83-8.43l-6.3-3.74c-1.96 3.32-3.94 4.76-7.3 4.76-5.6 0-8.87-5.13-8.87-11.85 0-6.93 3.2-11.84 8.8-11.84zm27.72-6.84h-7.47v37.38h22.46v-7.37h-15v-30zm34.7-.58c-10.22 0-16.25 7.9-16.25 19.27s6.03 19.28 16.24 19.28c10.2 0 16.23-7.9 16.23-19.27 0-11.36-6.04-19.26-16.24-19.26zm0 31.13c-6.05 0-8.56-5.2-8.56-11.86 0-6.66 2.52-11.84 8.56-11.84 6.03 0 8.54 5.18 8.54 11.85 0 6.7-2.5 11.87-8.54 11.87zm46.4-9.56c0 6-2.94 9.68-7.7 9.68-4.75 0-7.63-3.8-7.63-9.78v-20.88h-7.48v21c0 10.88 6.1 16.97 15.12 16.97 9.5 0 15.16-6.26 15.16-17.1v-20.88h-7.48v21zm28.5-20.98H663.8v37.38h11.14c9.62 0 19.12-5.56 19.12-18.7 0-13.66-7.9-18.68-18.58-18.68zm-.53 30.12h-3.68v-22.86h3.95c7.9 0 11.17 3.8 11.17 11.43 0 6.85-3.58 11.44-11.43 11.44z"/>
</svg>
